<svg width="16" height="16" viewBox="0 0 16 16" fill="none" xmlns="http://www.w3.org/2000/svg">
<g clip-path="url(#clip0_204_86)">
<mask id="mask0_204_86" style="mask-type:luminance" maskUnits="userSpaceOnUse" x="0" y="0" width="16" height="16">
<path d="M8 16C12.4183 16 16 12.4183 16 8C16 3.58172 12.4183 0 8 0C3.58172 0 0 3.58172 0 8C0 12.4183 3.58172 16 8 16Z" fill="white"/>
</mask>
<g mask="url(#mask0_204_86)">
<path d="M8 0H16V2L15 3L16 4V6L15 7L16 8V10L15 11L16 12V14L8 15L0 14V12L1 11L0 10V8L8 0Z" fill="#EEEEEE"/>
<path d="M7 2H16V4H7V2ZM7 6H16V8H8L7 6ZM0 10H16V12H0V10ZM0 14H16V16H0V14Z" fill="#D80027"/>
<path d="M0 0H8V8H0V0Z" fill="#0052B4"/>
<path d="M5.84375 7.59375L7.625 6.3125H5.4375L7.21875 7.59375L6.53125 5.5L5.84375 7.59375ZM3.3125 7.59375L5.09375 6.3125H2.90625L4.6875 7.59375L4 5.5L3.3125 7.59375ZM0.78125 7.59375L2.5625 6.3125H0.375L2.15625 7.59375L1.46875 5.5L0.78125 7.59375ZM5.84375 5.0625L7.625 3.78125H5.4375L7.21875 5.0625L6.53125 2.96875L5.84375 5.0625ZM3.3125 5.0625L5.09375 3.78125H2.90625L4.6875 5.0625L4 2.96875L3.3125 5.0625ZM0.78125 5.0625L2.5625 3.78125H0.375L2.15625 5.0625L1.46875 2.96875L0.78125 5.0625ZM5.84375 2.5L7.625 1.21875H5.4375L7.21875 2.5L6.53125 0.40625L5.84375 2.5ZM3.3125 2.5L5.09375 1.21875H2.90625L4.6875 2.5L4 0.40625L3.3125 2.5ZM0.78125 2.5L2.5625 1.21875H0.375L2.15625 2.5L1.46875 0.40625L0.78125 2.5Z" fill="#EEEEEE"/>
</g>
</g>
<defs>
<clipPath id="clip0_204_86">
<rect width="16" height="16" fill="white"/>
</clipPath>
</defs>
</svg>
