<svg width="24" height="24" viewBox="0 0 24 24" fill="none" xmlns="http://www.w3.org/2000/svg">
<path d="M9.34978 16.8801C9.34978 16.9501 9.27978 17.0001 9.17978 17.0001C9.07978 17.0001 8.99978 17.0001 8.99978 16.8801C8.99978 16.7601 9.07978 16.7601 9.16978 16.7601C9.25978 16.7601 9.34978 16.8101 9.34978 16.8801ZM8.34978 16.7301C8.34978 16.8001 8.34978 16.8801 8.48978 16.9001C8.52559 16.9173 8.56676 16.9196 8.60426 16.9065C8.64175 16.8934 8.67251 16.8659 8.68978 16.8301C8.68978 16.7601 8.68978 16.6901 8.54978 16.6601C8.40978 16.6301 8.36978 16.6601 8.34978 16.7301ZM9.76978 16.6801C9.67978 16.6801 9.61978 16.7601 9.62978 16.8401C9.63978 16.9201 9.71978 16.9501 9.81978 16.9301C9.91978 16.9101 9.96978 16.8401 9.95978 16.7701C9.94978 16.7001 9.86978 16.6701 9.76978 16.6801ZM11.8998 4.00014C10.8451 3.99021 9.79937 4.19346 8.82522 4.59767C7.85107 5.00188 6.96862 5.59873 6.23083 6.3524C5.49303 7.10607 4.91511 8.00102 4.53172 8.98356C4.14834 9.96609 3.96741 11.016 3.99978 12.0701C3.97187 13.797 4.48401 15.4895 5.46468 16.9112C6.44535 18.3329 7.84558 19.4129 9.46978 20.0001C9.87978 20.0701 10.0298 19.8101 10.0298 19.6001V17.6001C10.0298 17.6001 7.76978 18.1001 7.28978 16.6001C7.28978 16.6001 6.92978 15.6001 6.39978 15.3901C6.39978 15.3901 5.65978 14.8701 6.44978 14.8801C6.70853 14.915 6.95549 15.0101 7.17084 15.1577C7.38619 15.3053 7.56393 15.5014 7.68978 15.7301C7.79442 15.9352 7.93985 16.1168 8.11717 16.2637C8.29449 16.4105 8.49995 16.5196 8.72094 16.5842C8.94193 16.6488 9.1738 16.6676 9.4023 16.6394C9.63081 16.6112 9.85115 16.5366 10.0498 16.4201C10.0876 16.0026 10.2677 15.6108 10.5598 15.3101C8.75978 15.1001 6.93978 14.8401 6.93978 11.6501C6.92067 11.2898 6.97856 10.9295 7.10961 10.5932C7.24066 10.257 7.44185 9.95253 7.69978 9.70014C7.45553 8.96825 7.48394 8.17274 7.77978 7.46014C8.45978 7.24014 10.0098 8.35014 10.0098 8.35014C11.334 7.97668 12.7356 7.97668 14.0598 8.35014C14.0598 8.35014 15.6098 7.24014 16.2898 7.46014C16.5911 8.17154 16.6196 8.96906 16.3698 9.70014C16.6373 9.94867 16.8495 10.2508 16.9925 10.5867C17.1355 10.9227 17.2061 11.285 17.1998 11.6501C17.1998 14.8501 15.2998 15.1001 13.4998 15.3101C13.6807 15.5131 13.8183 15.7507 13.9043 16.0086C13.9903 16.2665 14.0228 16.5393 13.9998 16.8101V19.5801C13.9991 19.6477 14.0148 19.7144 14.0454 19.7746C14.076 19.8348 14.1207 19.8867 14.1756 19.9259C14.2306 19.9652 14.2942 19.9906 14.3611 20C14.428 20.0095 14.4961 20.0027 14.5598 19.9801C16.181 19.3979 17.5784 18.3211 18.5545 16.9018C19.5306 15.4825 20.0362 13.7923 19.9998 12.0701C20.0092 11.0052 19.8059 9.94914 19.4018 8.96383C18.9977 7.97852 18.4009 7.08381 17.6464 6.33217C16.892 5.58053 15.9951 4.98708 15.0083 4.58663C14.0215 4.18618 12.9647 3.98679 11.8998 4.00014ZM7.13978 15.4101V15.5801C7.15093 15.5913 7.16418 15.6002 7.17877 15.6063C7.19335 15.6123 7.20899 15.6154 7.22478 15.6154C7.24058 15.6154 7.25622 15.6123 7.2708 15.6063C7.28539 15.6002 7.29864 15.5913 7.30978 15.5801C7.30978 15.5801 7.30978 15.4701 7.30978 15.4001C7.30978 15.3301 7.17978 15.3701 7.13978 15.4101ZM6.78978 15.1401C6.78978 15.1401 6.78978 15.2401 6.85978 15.2701C6.86822 15.2806 6.87889 15.289 6.891 15.2948C6.90311 15.3006 6.91636 15.3036 6.92978 15.3036C6.94321 15.3036 6.95646 15.3006 6.96857 15.2948C6.98068 15.289 6.99135 15.2806 6.99978 15.2701C6.99978 15.2701 6.99978 15.1701 6.92978 15.1401C6.85978 15.1101 6.80978 15.1101 6.78978 15.1401ZM7.78978 16.3201V16.5301C7.78978 16.6001 7.95978 16.6101 7.99978 16.5301C8.03978 16.4501 7.99978 16.3901 7.99978 16.3201C7.99978 16.2501 7.86978 16.2701 7.82978 16.3201H7.78978ZM7.41978 15.8301V16.0301C7.41978 16.1101 7.55978 16.1401 7.60978 16.1101C7.63511 16.081 7.64906 16.0437 7.64906 16.0051C7.64906 15.9665 7.63511 15.9293 7.60978 15.9001C7.55978 15.8201 7.47978 15.7901 7.41978 15.8301Z" fill="white"/>
</svg>
