<svg width="24" height="24" viewBox="0 0 24 24" fill="none" xmlns="http://www.w3.org/2000/svg">
<path d="M12.0001 7.90014C11.1892 7.90014 10.3965 8.1406 9.7223 8.59111C9.04806 9.04163 8.52255 9.68196 8.21223 10.4311C7.90191 11.1803 7.82072 12.0047 7.97892 12.8C8.13712 13.5953 8.5276 14.3259 9.101 14.8993C9.67439 15.4727 10.4049 15.8632 11.2003 16.0214C11.9956 16.1796 12.82 16.0984 13.5691 15.788C14.3183 15.4777 14.9586 14.9522 15.4092 14.278C15.8597 13.6037 16.1001 12.811 16.1001 12.0001C16.1015 11.4613 15.9963 10.9276 15.7907 10.4296C15.5852 9.93155 15.2832 9.47904 14.9022 9.09806C14.5212 8.71708 14.0687 8.41512 13.5707 8.20954C13.0727 8.00397 12.5389 7.89882 12.0001 7.90014ZM12.0001 14.6701C11.4721 14.6701 10.9558 14.5135 10.5168 14.2202C10.0777 13.9268 9.73546 13.5098 9.53338 13.0219C9.33129 12.534 9.27842 11.9972 9.38144 11.4792C9.48446 10.9613 9.73876 10.4856 10.1122 10.1122C10.4856 9.73876 10.9613 9.48446 11.4792 9.38144C11.9972 9.27842 12.534 9.33129 13.0219 9.53338C13.5098 9.73546 13.9268 10.0777 14.2202 10.5168C14.5135 10.9558 14.6701 11.4721 14.6701 12.0001C14.6701 12.7083 14.3888 13.3874 13.8881 13.8881C13.3874 14.3888 12.7083 14.6701 12.0001 14.6701ZM17.2301 7.73014C17.2301 7.92792 17.1715 8.12126 17.0616 8.28571C16.9517 8.45016 16.7955 8.57833 16.6128 8.65402C16.4301 8.7297 16.229 8.74951 16.035 8.71092C15.8411 8.67234 15.6629 8.5771 15.523 8.43724C15.3832 8.29739 15.2879 8.11921 15.2494 7.92523C15.2108 7.73125 15.2306 7.53018 15.3063 7.34745C15.3819 7.16473 15.5101 7.00855 15.6746 6.89867C15.839 6.78879 16.0324 6.73014 16.2301 6.73014C16.4954 6.73014 16.7497 6.83549 16.9372 7.02303C17.1248 7.21057 17.2301 7.46492 17.2301 7.73014ZM19.9401 8.73014C19.9703 7.48677 19.5064 6.28214 18.6501 5.38014C18.2059 4.95072 17.6814 4.61311 17.1066 4.38661C16.5317 4.16011 15.9179 4.04917 15.3001 4.06014C14.0001 4.00014 10.0001 4.00014 8.70014 4.06014C7.45734 4.03323 6.25391 4.49664 5.35014 5.35014C4.49383 6.25214 4.02995 7.45677 4.06014 8.70014C4.00014 10.0001 4.00014 14.0001 4.06014 15.3001C4.02995 16.5435 4.49383 17.7481 5.35014 18.6501C6.25391 19.5036 7.45734 19.967 8.70014 19.9401C10.0201 20.0201 13.9801 20.0201 15.3001 19.9401C16.5435 19.9703 17.7481 19.5064 18.6501 18.6501C19.5064 17.7481 19.9703 16.5435 19.9401 15.3001C20.0001 14.0001 20.0001 10.0001 19.9401 8.70014V8.73014ZM18.2401 16.7301C18.1044 17.0741 17.8994 17.3865 17.6379 17.6479C17.3765 17.9094 17.0641 18.1144 16.7201 18.2501C15.1677 18.564 13.5807 18.6716 12.0001 18.5701C10.4229 18.6707 8.83928 18.5631 7.29014 18.2501C6.9462 18.1144 6.63381 17.9094 6.37235 17.6479C6.11088 17.3865 5.90591 17.0741 5.77014 16.7301C5.35014 15.6701 5.44014 13.1701 5.44014 12.0101C5.44014 10.8501 5.35014 8.34014 5.77014 7.29014C5.90208 6.9428 6.10559 6.6271 6.36745 6.36351C6.62931 6.09993 6.94368 5.89435 7.29014 5.76014C8.83928 5.44716 10.4229 5.33957 12.0001 5.44014C13.5807 5.33868 15.1677 5.44628 16.7201 5.76014C17.0641 5.89591 17.3765 6.10088 17.6379 6.36235C17.8994 6.62381 18.1044 6.9362 18.2401 7.28014C18.6601 8.34014 18.5601 10.8401 18.5601 12.0001C18.5601 13.1601 18.6601 15.6701 18.2401 16.7201V16.7301Z" fill="white"/>
</svg>
