<svg width="16" height="16" viewBox="0 0 16 16" fill="none" xmlns="http://www.w3.org/2000/svg">
<path d="M3.25 2.5C2.65326 2.5 2.08097 2.73705 1.65901 3.15901C1.23705 3.58097 1 4.15326 1 4.75V11.25C1 11.8467 1.23705 12.419 1.65901 12.841C2.08097 13.2629 2.65326 13.5 3.25 13.5H12.75C13.3467 13.5 13.919 13.2629 14.341 12.841C14.7629 12.419 15 11.8467 15 11.25V4.75C15 4.15326 14.7629 3.58097 14.341 3.15901C13.919 2.73705 13.3467 2.5 12.75 2.5H3.25ZM14 5.2015L8 8.432L2 5.2015V4.75C2 4.41848 2.1317 4.10054 2.36612 3.86612C2.60054 3.6317 2.91848 3.5 3.25 3.5H12.75C13.0815 3.5 13.3995 3.6317 13.6339 3.86612C13.8683 4.10054 14 4.41848 14 4.75V5.2015ZM2 6.337L7.763 9.4405C7.83584 9.47971 7.91727 9.50024 8 9.50024C8.08273 9.50024 8.16416 9.47971 8.237 9.4405L14 6.337V11.25C14 11.5815 13.8683 11.8995 13.6339 12.1339C13.3995 12.3683 13.0815 12.5 12.75 12.5H3.25C2.91848 12.5 2.60054 12.3683 2.36612 12.1339C2.1317 11.8995 2 11.5815 2 11.25V6.337Z" fill="white"/>
</svg>
