<svg width="16" height="16" viewBox="0 0 16 16" fill="none" xmlns="http://www.w3.org/2000/svg">
<g clip-path="url(#clip0_225_90)">
<path d="M12.25 0H3.75C1.67893 0 0 1.67893 0 3.75V12.25C0 14.3211 1.67893 16 3.75 16H12.25C14.3211 16 16 14.3211 16 12.25V3.75C16 1.67893 14.3211 0 12.25 0Z" fill="#242938"/>
<path d="M14.193 3.59991L8.32851 14.0866C8.20739 14.3032 7.89632 14.3044 7.77345 14.089L1.79264 3.60085C1.65876 3.3661 1.85951 3.08172 2.12564 3.12928L7.99639 4.17866C8.03385 4.18534 8.0722 4.18525 8.10964 4.17841L13.8576 3.13072C14.1228 3.08241 14.3245 3.3646 14.193 3.59991Z" fill="url(#paint0_linear_225_90)"/>
<path d="M10.793 1.75313L6.45309 2.60344C6.41841 2.61024 6.38698 2.62837 6.36373 2.65498C6.34048 2.68159 6.32673 2.71517 6.32465 2.75044L6.05765 7.25925C6.05619 7.28397 6.06051 7.30869 6.07027 7.33145C6.08003 7.35421 6.09496 7.37438 6.11388 7.39036C6.13279 7.40634 6.15517 7.4177 6.17923 7.42353C6.2033 7.42936 6.22839 7.4295 6.25252 7.42394L7.46084 7.14513C7.5739 7.11907 7.67602 7.21863 7.65284 7.33232L7.29384 9.09019C7.26965 9.2085 7.38077 9.30963 7.49627 9.27457L8.24259 9.04782C8.35827 9.01269 8.46946 9.11413 8.44496 9.23256L7.87446 11.9938C7.83877 12.1665 8.06852 12.2607 8.16434 12.1126L8.22834 12.0137L11.7647 4.95619C11.824 4.83807 11.7218 4.70332 11.592 4.72832L10.3483 4.96838C10.2315 4.99088 10.132 4.88207 10.165 4.76775L10.9768 1.95363C11.0098 1.83913 10.91 1.73025 10.793 1.75313Z" fill="url(#paint1_linear_225_90)"/>
</g>
<defs>
<linearGradient id="paint0_linear_225_90" x1="1.64664" y1="2.75447" x2="8.94545" y2="12.6668" gradientUnits="userSpaceOnUse">
<stop stop-color="#41D1FF"/>
<stop offset="1" stop-color="#BD34FE"/>
</linearGradient>
<linearGradient id="paint1_linear_225_90" x1="7.65946" y1="1.98394" x2="8.97977" y2="11.0413" gradientUnits="userSpaceOnUse">
<stop stop-color="#FFEA83"/>
<stop offset="0.083" stop-color="#FFDD35"/>
<stop offset="1" stop-color="#FFA800"/>
</linearGradient>
<clipPath id="clip0_225_90">
<rect width="16" height="16" fill="white"/>
</clipPath>
</defs>
</svg>
