<svg width="16" height="16" viewBox="0 0 16 16" fill="none" xmlns="http://www.w3.org/2000/svg">
<g clip-path="url(#clip0_225_84)">
<path d="M12.25 0H3.75C1.67893 0 0 1.67893 0 3.75V12.25C0 14.3211 1.67893 16 3.75 16H12.25C14.3211 16 16 14.3211 16 12.25V3.75C16 1.67893 14.3211 0 12.25 0Z" fill="#242938"/>
<path d="M8.01388 1.125L14.0902 4.5625V11.4375L8.01388 14.875L1.9375 11.4375V4.5625L8.01388 1.125Z" fill="white"/>
<path d="M13.0052 11.2003L8.21447 13.9102V11.7996L11.1994 10.1577L13.0052 11.2003ZM13.3329 10.9036V5.23628L11.5798 6.24803V9.89066L13.3329 10.9036ZM3.00322 11.2003L7.79397 13.9102V11.7996L4.80904 10.1577L3.00322 11.2003ZM2.67554 10.9036V5.23628L4.42866 6.24803V9.89066L2.67554 10.9036ZM2.8806 4.86959L7.79397 2.08984V4.13053L4.64635 5.86191L4.62229 5.87566L2.8806 4.86959ZM13.1278 4.86959L8.21447 2.08984V4.13053L11.3621 5.86191L11.3862 5.87566L13.1278 4.86959Z" fill="#8ED6FB"/>
<path d="M7.79393 11.3197L4.84912 9.70062V6.4923L7.79393 8.19274V11.3197ZM8.21443 11.3197L11.1592 9.70062V6.4923L8.21443 8.19274V11.3197ZM5.0485 6.12105L8.00475 4.49512L10.961 6.12105L8.00475 7.82837L5.0485 6.12105Z" fill="#1C78C0"/>
</g>
<defs>
<clipPath id="clip0_225_84">
<rect width="16" height="16" fill="white"/>
</clipPath>
</defs>
</svg>
