<svg width="16" height="16" viewBox="0 0 16 16" fill="none" xmlns="http://www.w3.org/2000/svg">
<g clip-path="url(#clip0_225_24)">
<path d="M12.25 0H3.75C1.67893 0 0 1.67893 0 3.75V12.25C0 14.3211 1.67893 16 3.75 16H12.25C14.3211 16 16 14.3211 16 12.25V3.75C16 1.67893 14.3211 0 12.25 0Z" fill="#CD6799"/>
<mask id="mask0_225_24" style="mask-type:luminance" maskUnits="userSpaceOnUse" x="1" y="3" width="14" height="10">
<path d="M1.75 3.3125H14.25V12.6818H1.75V3.3125Z" fill="white"/>
</mask>
<g mask="url(#mask0_225_24)">
<path d="M12.5068 8.69781C12.0709 8.70006 11.6922 8.80506 11.375 8.96019C11.2586 8.72975 11.1422 8.52437 11.1217 8.37375C11.0988 8.19806 11.0715 8.09081 11.0988 7.88088C11.1262 7.67094 11.2495 7.37206 11.2472 7.34925C11.2448 7.32644 11.2198 7.21919 10.9688 7.21688C10.7178 7.21456 10.501 7.26481 10.4759 7.331C10.4508 7.39712 10.4029 7.54775 10.371 7.70294C10.3276 7.93113 9.8689 8.74575 9.60653 9.17244C9.52209 9.00588 9.44909 8.85981 9.43309 8.74344C9.41028 8.56775 9.3829 8.4605 9.41028 8.25056C9.43765 8.04063 9.5609 7.74169 9.55859 7.71887C9.55628 7.69606 9.53121 7.58881 9.28021 7.58656C9.02921 7.58431 8.8124 7.63444 8.78734 7.70062C8.76221 7.76681 8.73484 7.922 8.68234 8.07256C8.6299 8.22319 8.02065 9.58319 7.8609 9.93456C7.79636 10.0768 7.72866 10.2175 7.65784 10.3567C7.65784 10.3567 7.65553 10.3636 7.64871 10.3749C7.62644 10.4186 7.60361 10.4619 7.58021 10.505V10.5073C7.54603 10.5689 7.50946 10.6259 7.49121 10.6259C7.47753 10.6259 7.45246 10.4617 7.49578 10.2381C7.58709 9.76569 7.80384 9.03094 7.80159 9.00587C7.80159 8.99219 7.84265 8.86437 7.66009 8.79819C7.48209 8.732 7.41821 8.84156 7.40221 8.84156C7.38628 8.84156 7.37484 8.88037 7.37484 8.88037C7.37484 8.88037 7.5734 8.05431 6.99609 8.05431C6.63553 8.05431 6.13809 8.44906 5.89171 8.80506C5.61154 8.95751 5.3316 9.11038 5.0519 9.26369C4.91734 9.339 4.77815 9.41431 4.64803 9.48506C4.6389 9.47594 4.62978 9.4645 4.62065 9.45537C3.9224 8.70919 2.6309 8.18213 2.68565 7.18038C2.70621 6.81525 2.83171 5.85688 5.16603 4.69313C7.08734 3.74619 8.61621 4.00856 8.8809 4.59044C9.25965 5.42106 8.06171 6.96356 6.07653 7.18719C5.3189 7.27162 4.9219 6.97956 4.82153 6.87006C4.71653 6.75594 4.70053 6.74913 4.66171 6.77194C4.59784 6.80613 4.6389 6.90881 4.66171 6.96813C4.72109 7.12331 4.96521 7.39712 5.37821 7.53175C5.74334 7.65044 6.63096 7.71663 7.70571 7.30131C8.90828 6.83581 9.8484 5.54194 9.57228 4.45813C9.29621 3.35825 7.47071 2.99544 5.74334 3.60925C4.71646 3.97438 3.60296 4.54938 2.80203 5.29781C1.85046 6.18781 1.6999 6.96131 1.76153 7.28531C1.98284 8.43538 3.56871 9.18381 4.20309 9.73831C4.17115 9.75656 4.14146 9.77256 4.1164 9.78625C3.79921 9.94369 2.58984 10.5758 2.28859 11.2444C1.94634 12.0019 2.3434 12.545 2.60578 12.618C3.4204 12.8439 4.25784 12.4378 4.7074 11.7669C5.15696 11.096 5.10215 10.2244 4.89446 9.82506C4.8922 9.82003 4.88911 9.8154 4.88534 9.81137C4.96753 9.76344 5.0519 9.71325 5.13409 9.66531C5.2851 9.57608 5.43801 9.4901 5.59271 9.40744C5.51515 9.61969 5.45809 9.87294 5.43071 10.2381C5.39653 10.6671 5.57221 11.2238 5.80265 11.4429C5.90534 11.5387 6.02628 11.541 6.1039 11.541C6.37315 11.541 6.49409 11.3174 6.62871 11.0527C6.79296 10.7286 6.94134 10.3521 6.94134 10.3521C6.94134 10.3521 6.75646 11.3699 7.25846 11.3699C7.44103 11.3699 7.62584 11.1326 7.70803 11.0116V11.0139C7.70803 11.0139 7.71259 11.0071 7.72171 10.9911C7.73996 10.9614 7.75134 10.9431 7.75134 10.9431V10.9386C7.8244 10.8108 7.98865 10.521 8.23284 10.0395C8.54771 9.41888 8.85121 8.64306 8.85121 8.64306C8.85121 8.64306 8.87859 8.83244 8.97215 9.14731C9.0269 9.33219 9.14103 9.53525 9.23228 9.7315C9.15928 9.83419 9.11365 9.89119 9.11365 9.89119L9.1159 9.8935C9.05659 9.97106 8.99271 10.0555 8.92196 10.1376C8.67321 10.4343 8.37659 10.7743 8.33553 10.8724C8.28759 10.9888 8.29903 11.0732 8.39028 11.1417C8.45646 11.1919 8.57509 11.1987 8.69603 11.1919C8.91965 11.1759 9.07715 11.1211 9.15471 11.0869C9.27565 11.0436 9.41715 10.9774 9.54946 10.8792C9.79365 10.699 9.94196 10.4411 9.92828 10.1011C9.9214 9.914 9.85978 9.72694 9.78453 9.55119C9.80734 9.51925 9.82784 9.48731 9.85065 9.45537C10.2363 8.89175 10.5352 8.27337 10.5352 8.27337C10.5352 8.27337 10.5626 8.46275 10.6562 8.77769C10.7018 8.93737 10.7953 9.11081 10.8775 9.27969C10.5147 9.57406 10.2911 9.91631 10.2112 10.1399C10.0675 10.5552 10.1793 10.7423 10.3915 10.7857C10.4873 10.8062 10.6242 10.7606 10.7247 10.7172C10.8524 10.6762 11.003 10.6054 11.1468 10.5004C11.3909 10.3202 11.626 10.0692 11.6123 9.72919C11.6054 9.57406 11.5643 9.42113 11.5073 9.27281C11.8153 9.14506 12.2124 9.07431 12.719 9.13363C13.8052 9.26144 14.0197 9.93912 13.9785 10.2244C13.9375 10.5096 13.7093 10.6647 13.634 10.7127C13.5587 10.7606 13.5336 10.7766 13.5405 10.8108C13.5496 10.861 13.5861 10.8587 13.65 10.8496C13.739 10.8336 14.2204 10.6191 14.241 10.0943C14.2752 9.42344 13.6363 8.69094 12.5068 8.69781ZM4.12778 11.5227C3.76728 11.9152 3.26528 12.0636 3.04846 11.9381C2.81571 11.8034 2.90696 11.2238 3.34971 10.8085C3.6189 10.5553 3.96578 10.3202 4.19621 10.1764C4.24871 10.1445 4.32628 10.0989 4.41984 10.0418C4.43584 10.0327 4.44496 10.0281 4.44496 10.0281L4.49971 9.99387C4.66171 10.5872 4.50653 11.1097 4.12778 11.5227ZM6.75196 9.73831C6.62646 10.0441 6.36409 10.8268 6.20434 10.7834C6.06746 10.7469 5.98303 10.1536 6.17696 9.56719C6.27509 9.27281 6.48271 8.92144 6.60365 8.7845C6.7999 8.56544 7.01665 8.49244 7.06915 8.58144C7.13534 8.69781 6.82959 9.54663 6.75196 9.73831ZM8.91746 10.7743C8.86496 10.8017 8.81478 10.8199 8.79196 10.8062C8.77596 10.7971 8.81478 10.7606 8.81478 10.7606C8.81478 10.7606 9.08634 10.4685 9.19359 10.3362C9.25515 10.2586 9.32821 10.1673 9.40578 10.0646V10.0943C9.40578 10.4434 9.06809 10.6784 8.91746 10.7743ZM10.5878 10.3932C10.549 10.3658 10.5558 10.2746 10.6859 9.98931C10.7361 9.8775 10.8548 9.69044 11.0578 9.51013C11.0807 9.58319 11.0967 9.65387 11.0943 9.72006C11.0921 10.1605 10.7772 10.3248 10.5878 10.3932Z" fill="white"/>
</g>
</g>
<defs>
<clipPath id="clip0_225_24">
<rect width="16" height="16" fill="white"/>
</clipPath>
</defs>
</svg>
