<svg width="16" height="16" viewBox="0 0 16 16" fill="none" xmlns="http://www.w3.org/2000/svg">
<g clip-path="url(#clip0_225_40)">
<path d="M12.25 0H3.75C1.67893 0 0 1.67893 0 3.75V12.25C0 14.3211 1.67893 16 3.75 16H12.25C14.3211 16 16 14.3211 16 12.25V3.75C16 1.67893 14.3211 0 12.25 0Z" fill="#007ACC"/>
<path d="M3.53827 8.05308L3.5332 8.70833H5.6157V14.6258H7.08877V8.70833H9.17127V8.06577C9.17127 7.7102 9.1637 7.41308 9.15352 7.40545C9.14589 7.39533 7.87858 7.3902 6.34208 7.39277L3.54589 7.40039L3.53827 8.05308ZM12.9105 7.38177C13.3168 7.48339 13.6267 7.6637 13.9111 7.95827C14.0585 8.11577 14.2768 8.40277 14.2946 8.47133C14.2997 8.49164 13.6038 8.95895 13.1823 9.22052C13.167 9.2307 13.106 9.16464 13.0375 9.06308C12.8318 8.76339 12.6159 8.63383 12.2857 8.61102C11.8006 8.57795 11.4883 8.83195 11.4908 9.25608C11.4908 9.38052 11.5086 9.45414 11.5594 9.55577C11.666 9.7767 11.8641 9.90877 12.4864 10.178C13.6318 10.6707 14.1219 10.9958 14.4267 11.458C14.767 11.9735 14.8432 12.7964 14.6121 13.4085C14.3581 14.0738 13.7283 14.5259 12.8419 14.6758C12.5676 14.724 11.9175 14.7164 11.6229 14.6631C10.9803 14.5488 10.3708 14.2313 9.99495 13.8148C9.84764 13.6523 9.56064 13.2281 9.57845 13.1976C9.58602 13.1875 9.65208 13.1469 9.7257 13.1037C9.79683 13.0631 10.0661 12.9081 10.32 12.7608L10.7797 12.4941L10.8762 12.6364C11.0108 12.8421 11.3054 13.124 11.4832 13.218C11.9936 13.4872 12.6946 13.4491 13.04 13.1393C13.1873 13.0046 13.2483 12.865 13.2483 12.6593C13.2483 12.4738 13.2254 12.3926 13.1289 12.2529C13.0045 12.0751 12.7505 11.9253 12.0292 11.6129C11.2038 11.2573 10.8483 11.0364 10.5232 10.6859C10.3353 10.4828 10.1575 10.1576 10.0838 9.88589C10.0229 9.65989 10.0076 9.09352 10.0559 8.86495C10.226 8.06752 10.828 7.51133 11.6965 7.3462C11.9785 7.29289 12.6336 7.3132 12.9105 7.38177Z" fill="white"/>
</g>
<defs>
<clipPath id="clip0_225_40">
<rect width="16" height="16" fill="white"/>
</clipPath>
</defs>
</svg>
