<svg width="16" height="16" viewBox="0 0 16 16" fill="none" xmlns="http://www.w3.org/2000/svg">
<g clip-path="url(#clip0_225_95)">
<path d="M12.25 0H3.75C1.67893 0 0 1.67893 0 3.75V12.25C0 14.3211 1.67893 16 3.75 16H12.25C14.3211 16 16 14.3211 16 12.25V3.75C16 1.67893 14.3211 0 12.25 0Z" fill="#242938"/>
<mask id="mask0_225_95" style="mask-type:luminance" maskUnits="userSpaceOnUse" x="3" y="1" width="10" height="14">
<path d="M3.8125 1.75H12.1475V14.25H3.8125V1.75Z" fill="white"/>
</mask>
<g mask="url(#mask0_225_95)">
<path d="M5.89661 14.2502C7.04661 14.2502 7.97992 13.3169 7.97992 12.1669V10.0835H5.89661C4.74661 10.0835 3.81323 11.0169 3.81323 12.1669C3.81323 13.3169 4.74661 14.2502 5.89661 14.2502Z" fill="#0ACF83"/>
<path d="M3.81323 7.99982C3.81323 6.84982 4.74661 5.9165 5.89661 5.9165H7.97992V10.0831H5.89661C4.74661 10.0831 3.81323 9.14982 3.81323 7.99982Z" fill="#A259FF"/>
<path d="M3.81323 3.83331C3.81323 2.68331 4.74661 1.75 5.89661 1.75H7.97992V5.91669H5.89661C4.74661 5.91669 3.81323 4.98331 3.81323 3.83331Z" fill="#F24E1E"/>
<path d="M7.97998 1.75H10.0633C11.2133 1.75 12.1467 2.68331 12.1467 3.83331C12.1467 4.98331 11.2133 5.91669 10.0633 5.91669H7.97998V1.75Z" fill="#FF7262"/>
<path d="M12.1467 7.99982C12.1467 9.14982 11.2133 10.0831 10.0633 10.0831C8.91329 10.0831 7.97998 9.14982 7.97998 7.99982C7.97998 6.84982 8.91329 5.9165 10.0633 5.9165C11.2133 5.9165 12.1467 6.84982 12.1467 7.99982Z" fill="#1ABCFE"/>
</g>
</g>
<defs>
<clipPath id="clip0_225_95">
<rect width="16" height="16" fill="white"/>
</clipPath>
</defs>
</svg>
