<svg width="16" height="16" viewBox="0 0 16 16" fill="none" xmlns="http://www.w3.org/2000/svg">
<g clip-path="url(#clip0_225_66)">
<path d="M12.25 0H3.75C1.67893 0 0 1.67893 0 3.75V12.25C0 14.3211 1.67893 16 3.75 16H12.25C14.3211 16 16 14.3211 16 12.25V3.75C16 1.67893 14.3211 0 12.25 0Z" fill="#023430"/>
<path d="M10.6983 6.72444C10.0397 3.81938 8.66724 3.046 8.31712 2.49931C8.17266 2.25852 8.04476 2.00817 7.9343 1.75C7.9158 2.00813 7.8818 2.17062 7.66243 2.36637C7.22199 2.75906 5.35137 4.28344 5.19393 7.58425C5.04724 10.6619 7.45643 12.5596 7.77468 12.7557C8.01943 12.8762 8.31749 12.7583 8.46293 12.6477C9.62424 11.8507 11.211 9.72588 10.6996 6.72444" fill="#10AA50"/>
<path d="M8.03394 11.1167C7.97332 11.8784 7.92988 12.3211 7.77588 12.7564C7.77588 12.7564 7.87694 13.4816 7.94794 14.2498H8.19913C8.25912 13.7088 8.35061 13.1718 8.47313 12.6415C8.14794 12.4815 8.04644 11.7851 8.03394 11.1167Z" fill="#B8C4C2"/>
<path d="M8.47274 12.6422C8.14412 12.4904 8.04906 11.7794 8.03443 11.117C8.11565 10.0243 8.13935 8.9281 8.10543 7.83293C8.08818 7.2583 8.11355 2.51055 7.96387 1.81543C8.06621 2.05089 8.1842 2.27924 8.31706 2.49893C8.66718 3.04605 10.0401 3.81943 10.6982 6.72449C11.2109 9.72081 9.63281 11.8401 8.47274 12.6422Z" fill="#12924F"/>
</g>
<defs>
<clipPath id="clip0_225_66">
<rect width="16" height="16" fill="white"/>
</clipPath>
</defs>
</svg>
