<svg width="16" height="16" viewBox="0 0 16 16" fill="none" xmlns="http://www.w3.org/2000/svg">
<g clip-path="url(#clip0_225_55)">
<path d="M12.25 0H3.75C1.67893 0 0 1.67893 0 3.75V12.25C0 14.3211 1.67893 16 3.75 16H12.25C14.3211 16 16 14.3211 16 12.25V3.75C16 1.67893 14.3211 0 12.25 0Z" fill="#764ABC"/>
<path d="M10.4112 10.3498C10.8725 10.3021 11.2224 9.90441 11.2065 9.42722C11.1906 8.95003 10.7929 8.56828 10.3158 8.56828H10.2839C9.79082 8.58416 9.40907 8.99772 9.42494 9.49084C9.44088 9.72947 9.53632 9.93622 9.67944 10.0794C9.13863 11.1452 8.31151 11.9246 7.07076 12.5768C6.22769 13.0222 5.35282 13.1812 4.47794 13.0699C3.76213 12.9745 3.20544 12.6563 2.85544 12.1314C2.34644 11.352 2.29876 10.5089 2.72819 9.66584C3.03044 9.06134 3.50763 8.61597 3.80988 8.39328C3.74626 8.18653 3.65082 7.83653 3.60307 7.58203C1.29663 9.25228 1.53519 11.511 2.23507 12.5768C2.76007 13.3721 3.82576 13.8652 5.00288 13.8652C5.32101 13.8652 5.63913 13.8334 5.95726 13.7538C7.99338 13.3562 9.53632 12.1473 10.4112 10.3498Z" fill="white"/>
<path d="M13.2108 8.37745C12.0019 6.9617 10.2203 6.18233 8.18426 6.18233H7.92976C7.78657 5.89595 7.48432 5.70508 7.15032 5.70508H7.11851C6.62539 5.72102 6.24364 6.13458 6.25951 6.6277C6.27545 7.10489 6.67307 7.48664 7.15032 7.48664H7.18214C7.53207 7.47077 7.83432 7.24808 7.96157 6.94583H8.24789C9.45676 6.94583 10.6021 7.29577 11.636 7.97977C12.4313 8.5047 13.004 9.1887 13.3221 10.0158C13.5926 10.6839 13.5766 11.3361 13.2903 11.8928C12.8449 12.7359 12.0973 13.1972 11.1111 13.1972C10.4748 13.1972 9.87039 13.0063 9.5522 12.8631C9.37726 13.0222 9.05914 13.2767 8.83645 13.4358C9.52039 13.7539 10.2203 13.9289 10.8884 13.9289C12.4154 13.9289 13.5448 13.0858 13.9743 12.2428C14.4356 11.3202 14.4038 9.72952 13.2108 8.37745Z" fill="white"/>
<path d="M5.13011 10.6204C5.14605 11.0976 5.54367 11.4793 6.02092 11.4793H6.05273C6.5458 11.4634 6.92761 11.0498 6.91167 10.5567C6.8958 10.0795 6.49811 9.69775 6.02092 9.69775H5.98905C5.9573 9.69775 5.90955 9.69775 5.8778 9.71369C5.22555 8.632 4.95517 7.45487 5.05061 6.18237C5.11423 5.228 5.43236 4.40081 5.98911 3.71675C6.45036 3.12825 7.34117 2.84194 7.94561 2.826C9.63173 2.79419 10.3475 4.89388 10.3952 5.737C10.602 5.78469 10.952 5.896 11.1906 5.97556C10.9997 3.39875 9.40905 2.0625 7.88198 2.0625C6.45036 2.0625 5.13011 3.09644 4.60517 4.6235C3.87348 6.65956 4.35067 8.61606 5.24142 10.1591C5.16192 10.2704 5.11417 10.4454 5.13011 10.6204Z" fill="white"/>
</g>
<defs>
<clipPath id="clip0_225_55">
<rect width="16" height="16" fill="white"/>
</clipPath>
</defs>
</svg>
