<svg width="16" height="16" viewBox="0 0 16 16" fill="none" xmlns="http://www.w3.org/2000/svg">
<g clip-path="url(#clip0_226_157)">
<path d="M12.25 0H3.75C1.67893 0 0 1.67893 0 3.75V12.25C0 14.3211 1.67893 16 3.75 16H12.25C14.3211 16 16 14.3211 16 12.25V3.75C16 1.67893 14.3211 0 12.25 0Z" fill="#242938"/>
<path d="M3.07238 6.26538H4.84788C5.369 6.26979 5.74663 6.41996 5.98075 6.71588C6.21483 7.01175 6.29213 7.41587 6.21263 7.92825C6.18171 8.16233 6.11325 8.392 6.00725 8.61725C5.90567 8.8425 5.76433 9.04567 5.58325 9.22675C5.36242 9.45638 5.12612 9.60212 4.87437 9.664C4.62258 9.72583 4.362 9.75675 4.09263 9.75675H3.29763L3.04588 11.0155H2.125L3.07238 6.26538ZM3.8475 7.02063L3.45 9.00813C3.4765 9.01254 3.503 9.01475 3.5295 9.01475H3.62225C4.04629 9.01917 4.39963 8.97721 4.68225 8.88888C4.96492 8.79613 5.15483 8.47371 5.252 7.92163C5.3315 7.45788 5.252 7.19067 5.0135 7.12C4.77942 7.04937 4.48571 7.01625 4.13237 7.02063C4.07942 7.02504 4.02863 7.02725 3.98 7.02725H3.84087L3.8475 7.02063ZM7.26162 5H8.17587L7.9175 6.26538H8.739C9.18946 6.27425 9.52513 6.367 9.746 6.54362C9.97125 6.72029 10.0375 7.05596 9.94475 7.55062L9.50088 9.75675H8.57337L8.99737 7.65C9.0415 7.42917 9.02825 7.27238 8.95763 7.17963C8.887 7.08688 8.73462 7.0405 8.5005 7.0405L7.76512 7.03387L7.22188 9.75675H6.30762L7.26162 5ZM10.9265 6.26538H12.702C13.2231 6.26979 13.6008 6.41996 13.8349 6.71588C14.069 7.01175 14.1462 7.41587 14.0667 7.92825C14.0358 8.16233 13.9674 8.392 13.8614 8.61725C13.7598 8.8425 13.6185 9.04567 13.4374 9.22675C13.2165 9.45638 12.9803 9.60212 12.7285 9.664C12.4767 9.72583 12.2161 9.75675 11.9467 9.75675H11.1517L10.9 11.0155H9.97913L10.9265 6.26538ZM11.7016 7.02063L11.3041 9.00813C11.3306 9.01254 11.3571 9.01475 11.3836 9.01475H11.4764C11.9004 9.01917 12.2538 8.97721 12.5364 8.88888C12.819 8.79613 13.009 8.47371 13.1061 7.92163C13.1856 7.45788 13.1061 7.19067 12.8676 7.12C12.6335 7.04937 12.3398 7.01625 11.9865 7.02063C11.9335 7.02504 11.8827 7.02725 11.8341 7.02725H11.695L11.7016 7.02063Z" fill="white"/>
</g>
<defs>
<clipPath id="clip0_226_157">
<rect width="16" height="16" fill="white"/>
</clipPath>
</defs>
</svg>
