<svg width="16" height="16" viewBox="0 0 16 16" fill="none" xmlns="http://www.w3.org/2000/svg">
<g clip-path="url(#clip0_226_161)">
<path d="M12.25 0H3.75C1.67893 0 0 1.67893 0 3.75V12.25C0 14.3211 1.67893 16 3.75 16H12.25C14.3211 16 16 14.3211 16 12.25V3.75C16 1.67893 14.3211 0 12.25 0Z" fill="#001E36"/>
<path d="M3.6001 11.1276V4.26761C3.6001 4.22092 3.6201 4.1943 3.66679 4.1943C3.7801 4.1943 3.88679 4.1943 4.0401 4.18761C4.2001 4.18092 4.36679 4.18092 4.54679 4.1743C4.72679 4.16761 4.9201 4.16761 5.12679 4.16092C5.33341 4.1543 5.53341 4.1543 5.73341 4.1543C6.2801 4.1543 6.73341 4.22092 7.10679 4.36092C7.44144 4.4746 7.74659 4.66134 8.0001 4.90761C8.21487 5.12317 8.38084 5.38235 8.48679 5.66761C8.58679 5.94761 8.6401 6.2343 8.6401 6.5343C8.6401 7.10763 8.50676 7.58096 8.2401 7.9543C7.97341 8.32761 7.6001 8.60761 7.16679 8.76761C6.71341 8.9343 6.21341 8.9943 5.66679 8.9943C5.50679 8.9943 5.4001 8.9943 5.33341 8.98761C5.26672 8.98092 5.17341 8.98092 5.04679 8.98092V11.1209C5.05341 11.1676 5.0201 11.2076 4.97341 11.2143H3.6801C3.62679 11.2143 3.6001 11.1876 3.6001 11.1276ZM5.05341 5.48092V7.72092C5.14679 7.72761 5.23341 7.7343 5.31341 7.7343H5.66679C5.92679 7.7343 6.18679 7.6943 6.43341 7.6143C6.64679 7.5543 6.83341 7.42761 6.9801 7.26092C7.1201 7.0943 7.18679 6.86761 7.18679 6.5743C7.19304 6.36595 7.13984 6.16014 7.03341 5.98092C6.9201 5.80761 6.7601 5.6743 6.56679 5.60092C6.3201 5.50092 6.05341 5.46092 5.7801 5.46761C5.60679 5.46761 5.45341 5.46761 5.32679 5.4743C5.19341 5.46761 5.1001 5.4743 5.05341 5.48092ZM12.8001 7.3143C12.6001 7.20761 12.3868 7.1343 12.1601 7.08761C11.9134 7.0343 11.6668 7.00092 11.4134 7.00092C11.2801 6.9943 11.1401 7.0143 11.0134 7.04761C10.9268 7.06761 10.8534 7.1143 10.8068 7.18092C10.7734 7.2343 10.7534 7.30092 10.7534 7.36092C10.7534 7.42092 10.7801 7.48092 10.8201 7.5343C10.8801 7.60761 10.9601 7.66761 11.0468 7.7143C11.2014 7.79432 11.3593 7.86772 11.5201 7.9343C11.8801 8.0543 12.2268 8.22092 12.5468 8.42092C12.7668 8.56092 12.9468 8.74761 13.0734 8.9743C13.1801 9.18761 13.2334 9.42092 13.2268 9.66092C13.2334 9.9743 13.1401 10.2876 12.9668 10.5476C12.7808 10.8137 12.5214 11.0199 12.2201 11.1409C11.8934 11.2809 11.4934 11.3543 11.0134 11.3543C10.7068 11.3543 10.4068 11.3276 10.1068 11.2676C9.87165 11.227 9.64298 11.1553 9.42678 11.0543C9.3801 11.0276 9.34679 10.9809 9.35341 10.9276V9.76761C9.35341 9.74761 9.3601 9.72092 9.3801 9.70761C9.4001 9.6943 9.4201 9.70092 9.4401 9.7143C9.7001 9.86761 9.97341 9.9743 10.2668 10.0409C10.5201 10.1076 10.7868 10.1409 11.0534 10.1409C11.3068 10.1409 11.4868 10.1076 11.6068 10.0476C11.7134 10.0009 11.7868 9.88761 11.7868 9.76761C11.7868 9.6743 11.7334 9.58761 11.6268 9.50092C11.5201 9.4143 11.3001 9.3143 10.9734 9.18761C10.6383 9.0695 10.3201 8.90813 10.0268 8.70761C9.81785 8.55874 9.64475 8.36515 9.5201 8.14092C9.41341 7.92761 9.3601 7.6943 9.36679 7.46092C9.36679 7.1743 9.44679 6.90092 9.59341 6.6543C9.7601 6.38761 10.0068 6.1743 10.2934 6.04092C10.6068 5.88092 11.0001 5.80761 11.4734 5.80761C11.7468 5.80761 12.0268 5.82761 12.3001 5.86761C12.5001 5.8943 12.6934 5.94761 12.8734 6.02092C12.9001 6.02761 12.9268 6.0543 12.9401 6.08092C12.9468 6.10761 12.9534 6.1343 12.9534 6.16092V7.24761C12.9534 7.2743 12.9401 7.30092 12.9201 7.3143C12.8601 7.32761 12.8268 7.32761 12.8001 7.3143Z" fill="#31A8FF"/>
</g>
<defs>
<clipPath id="clip0_226_161">
<rect width="16" height="16" fill="white"/>
</clipPath>
</defs>
</svg>
