<svg width="16" height="16" viewBox="0 0 16 16" fill="none" xmlns="http://www.w3.org/2000/svg">
<g clip-path="url(#clip0_225_76)">
<path d="M12.25 0H3.75C1.67893 0 0 1.67893 0 3.75V12.25C0 14.3211 1.67893 16 3.75 16H12.25C14.3211 16 16 14.3211 16 12.25V3.75C16 1.67893 14.3211 0 12.25 0Z" fill="#F03C2E"/>
<mask id="mask0_225_76" style="mask-type:luminance" maskUnits="userSpaceOnUse" x="1" y="1" width="14" height="14">
<path d="M1.75 1.75H14.25V14.25H1.75V1.75Z" fill="white"/>
</mask>
<g mask="url(#mask0_225_76)">
<path d="M14.014 7.44334L8.55655 1.98591C8.44403 1.87326 8.30061 1.79654 8.14445 1.76547C7.9883 1.73439 7.82644 1.75036 7.67936 1.81134C7.58174 1.85186 7.49304 1.91117 7.4183 1.98591L6.28549 3.11872L7.72299 4.55622C8.05736 4.43903 8.44017 4.51909 8.70655 4.78553C8.83337 4.91257 8.92191 5.07271 8.96204 5.24768C9.00217 5.42264 8.99227 5.60536 8.93349 5.77497L10.319 7.16053C10.6542 7.04491 11.0409 7.11947 11.3085 7.38784C11.4425 7.52181 11.5338 7.69253 11.5707 7.8784C11.6077 8.06427 11.5887 8.25693 11.516 8.43197C11.4187 8.66665 11.2322 8.85309 10.9974 8.95028C10.7627 9.04747 10.499 9.04748 10.2642 8.95028C10.148 8.90209 10.0424 8.83153 9.95342 8.74253C9.67217 8.46128 9.60267 8.04722 9.74486 7.70072L8.45267 6.40853V9.80897C8.54648 9.85537 8.6322 9.91657 8.70655 9.99022C8.88619 10.1699 8.98711 10.4135 8.98711 10.6676C8.98711 10.9216 8.88619 11.1653 8.70655 11.3449C8.52691 11.5245 8.28326 11.6255 8.02921 11.6255C7.77515 11.6255 7.5315 11.5245 7.35186 11.3449C7.21779 11.211 7.12648 11.0403 7.08947 10.8545C7.05247 10.6686 7.07144 10.476 7.14399 10.3009C7.19216 10.1847 7.2628 10.0791 7.35186 9.99022C7.44442 9.89803 7.54717 9.82809 7.66555 9.78122V6.34916C7.54808 6.30116 7.44142 6.23012 7.35186 6.14022C7.21737 6.00587 7.12593 5.83451 7.08919 5.64798C7.05246 5.46146 7.0721 5.26822 7.14561 5.09291L5.72767 3.67584L1.98549 7.41409C1.87283 7.52667 1.7961 7.67014 1.765 7.82634C1.73391 7.98254 1.74985 8.14445 1.8108 8.29159C1.85133 8.38927 1.91069 8.47802 1.98549 8.55278L7.4433 14.0098C7.51804 14.0845 7.60674 14.1438 7.70436 14.1843C7.90164 14.2659 8.12321 14.2659 8.32049 14.1843C8.41811 14.1438 8.50681 14.0845 8.58155 14.0098L14.014 8.58597C14.0888 8.51123 14.1481 8.42248 14.1886 8.32479C14.2291 8.22711 14.25 8.1224 14.25 8.01666C14.25 7.9109 14.2291 7.80618 14.1886 7.70849C14.1481 7.61079 14.0888 7.52203 14.014 7.44728" fill="white"/>
</g>
</g>
<defs>
<clipPath id="clip0_225_76">
<rect width="16" height="16" fill="white"/>
</clipPath>
</defs>
</svg>
