<svg width="16" height="16" viewBox="0 0 16 16" fill="none" xmlns="http://www.w3.org/2000/svg">
<g clip-path="url(#clip0_226_135)">
<mask id="mask0_226_135" style="mask-type:luminance" maskUnits="userSpaceOnUse" x="0" y="0" width="16" height="16">
<path d="M0 0H16V16H0V0Z" fill="white"/>
</mask>
<g mask="url(#mask0_226_135)">
<path d="M12.25 0H3.75C1.67894 0 0 1.67894 0 3.75V12.25C0 14.3211 1.67894 16 3.75 16H12.25C14.3211 16 16 14.3211 16 12.25V3.75C16 1.67894 14.3211 0 12.25 0Z" fill="#242938"/>
<mask id="mask1_226_135" style="mask-type:luminance" maskUnits="userSpaceOnUse" x="1" y="5" width="14" height="6">
<path d="M1.75 5.3125H14.25V10.625H1.75V5.3125Z" fill="white"/>
</mask>
<g mask="url(#mask1_226_135)">
<path d="M13.479 9.59825C13.479 10.1567 13.006 10.6137 12.428 10.6137H3.59403C3.01591 10.6137 2.54297 10.1567 2.54297 9.59825V6.36456C2.54297 5.80606 3.01597 5.34912 3.59403 5.34912H12.428C13.006 5.34912 13.479 5.80606 13.479 6.36456V9.59825Z" fill="url(#paint0_linear_226_135)"/>
<mask id="mask2_226_135" style="mask-type:luminance" maskUnits="userSpaceOnUse" x="1" y="5" width="14" height="6">
<path d="M1.75415 5.33643H14.2487V10.625H1.75415" fill="white"/>
</mask>
<g mask="url(#mask2_226_135)">
<path fill-rule="evenodd" clip-rule="evenodd" d="M13.7151 7.26505C13.7151 6.86918 13.7767 6.63574 13.7767 6.20943C13.7767 5.54961 13.5304 5.33643 12.9866 5.33643H12.5864V5.80336H12.7095C12.9866 5.80336 13.0482 5.89474 13.0482 6.22974C13.0482 6.54436 13.0174 6.85905 13.0174 7.22449C13.0174 7.69143 13.1713 7.87411 13.479 7.94518V7.97568C13.1713 8.04668 13.0174 8.22943 13.0174 8.69636C13.0174 9.06174 13.0482 9.35618 13.0482 9.69118C13.0482 10.0362 12.9764 10.1276 12.7095 10.1276V10.1377H12.5864V10.625H12.9866C13.5304 10.625 13.7767 10.4118 13.7767 9.75205C13.7767 9.31555 13.7151 9.09224 13.7151 8.69636C13.7151 8.48318 13.8485 8.25986 14.2487 8.23955V7.71174C13.8485 7.70155 13.7151 7.47824 13.7151 7.26505ZM9.16967 7.8843C8.85155 7.76249 8.56424 7.69143 8.56424 7.48836C8.56424 7.33618 8.68736 7.2448 8.91311 7.2448C9.13886 7.2448 9.34405 7.33618 9.5698 7.49861L9.98024 6.96055C9.72367 6.76774 9.37486 6.56468 8.90286 6.56468C8.20517 6.56468 7.73311 6.96055 7.73311 7.51886C7.73311 8.01624 8.17436 8.26999 8.54374 8.41211C8.8618 8.53393 9.16967 8.63549 9.16967 8.83843C9.16967 8.99074 9.04649 9.09224 8.76949 9.09224C8.51292 9.09224 8.25649 8.99074 7.97942 8.77755L7.57924 9.3663C7.88705 9.62005 8.35905 9.79261 8.74892 9.79261C9.5698 9.79261 10.011 9.3663 10.011 8.80799C10.011 8.24968 9.5698 8.01624 9.16967 7.8843ZM11.6527 7.8843C11.3449 7.76249 11.0576 7.69143 11.0576 7.48836C11.0576 7.33618 11.1807 7.2448 11.4064 7.2448C11.6321 7.2448 11.8374 7.33618 12.0632 7.49861L12.4735 6.96055C12.217 6.76774 11.8682 6.56468 11.3962 6.56468C10.6984 6.56468 10.2265 6.96055 10.2265 7.51886C10.2265 8.01624 10.6677 8.26999 11.037 8.41211C11.3551 8.53393 11.6629 8.63549 11.6629 8.83843C11.6629 8.99074 11.5398 9.09224 11.2628 9.09224C11.0063 9.09224 10.7497 8.99074 10.4727 8.77755L10.0623 9.3663C10.3701 9.62005 10.8421 9.79261 11.232 9.79261C12.0529 9.79261 12.494 9.3663 12.494 8.80799C12.494 8.24968 12.0529 8.01624 11.6527 7.8843ZM5.55786 7.83349C5.61942 7.42749 5.86567 7.23468 6.15298 7.23468C6.52236 7.23468 6.66605 7.48836 6.66605 7.83349H5.55786ZM7.44586 8.01624C7.45611 7.19405 7.00461 6.55455 6.14274 6.55455C5.39374 6.55455 4.67549 7.17374 4.69599 8.14818C4.69599 9.15311 5.36292 9.74186 6.24536 9.74186C6.61474 9.74186 7.02517 9.60993 7.34324 9.39674L7.03542 8.8588C6.80967 8.99074 6.59417 9.05161 6.36849 9.05161C5.95805 9.05161 5.63992 8.8588 5.55786 8.3918H7.41505C7.4253 8.32074 7.44586 8.17868 7.44586 8.01624Z" fill="#FAF9F8"/>
</g>
<mask id="mask3_226_135" style="mask-type:luminance" maskUnits="userSpaceOnUse" x="1" y="5" width="14" height="6">
<path d="M1.75415 5.33643H14.2487V10.625H1.75415" fill="white"/>
</mask>
<g mask="url(#mask3_226_135)">
<path fill-rule="evenodd" clip-rule="evenodd" d="M4.64472 9.03136C4.57285 9.03136 4.48053 8.97043 4.48053 8.77755V5.33643H3.02353C2.46947 5.33643 2.22316 5.54961 2.22316 6.20943C2.22316 6.64586 2.28472 6.88955 2.28472 7.26505C2.28472 7.47824 2.15135 7.70155 1.75122 7.72186V8.24974C2.15135 8.25986 2.28472 8.48318 2.28472 8.69636C2.28472 9.07193 2.22316 9.29524 2.22316 9.73174C2.22316 10.3916 2.46941 10.6047 3.01328 10.6047H3.41341V10.1377H3.29028C3.03378 10.1377 2.95172 10.0362 2.95172 9.7013C2.95172 9.3663 2.98247 9.08211 2.98247 8.70649C2.98247 8.23955 2.8286 8.0568 2.52072 7.9858V7.95536C2.8286 7.8843 2.98247 7.70155 2.98247 7.23468C2.98247 6.86918 2.95172 6.57486 2.95172 6.23986C2.95172 5.90486 3.02347 5.81361 3.29028 5.81361H3.56735V8.7268C3.56735 9.34599 3.78285 9.75205 4.40872 9.75205C4.60366 9.75205 4.7576 9.72155 4.87047 9.68099L4.76785 9.02118C4.70628 9.03136 4.67553 9.03136 4.64472 9.03136Z" fill="#FAF9F8"/>
</g>
</g>
</g>
</g>
<defs>
<linearGradient id="paint0_linear_226_135" x1="549.343" y1="5.34912" x2="549.343" y2="531.803" gradientUnits="userSpaceOnUse">
<stop stop-color="#2E4F82"/>
<stop offset="1" stop-color="#182E4D"/>
</linearGradient>
<clipPath id="clip0_226_135">
<rect width="16" height="16" fill="white"/>
</clipPath>
</defs>
</svg>
