<svg width="24" height="24" viewBox="0 0 24 24" fill="none" xmlns="http://www.w3.org/2000/svg">
<path d="M17.6 6.32005C16.8669 5.58147 15.9943 4.99602 15.033 4.59773C14.0716 4.19945 13.0406 3.99628 12 4.00005C10.6089 4.00141 9.24248 4.36825 8.03771 5.06383C6.83294 5.75941 5.83208 6.75932 5.13534 7.96341C4.4386 9.16751 4.07046 10.5335 4.06776 11.9247C4.06507 13.3158 4.42793 14.6833 5.12 15.8901L4 20.0001L8.2 18.9001C9.35927 19.5465 10.6627 19.8904 11.99 19.9001C14.0997 19.9001 16.124 19.0669 17.6222 17.5817C19.1205 16.0965 19.9715 14.0796 19.99 11.9701C19.983 10.9174 19.7682 9.8764 19.3581 8.90686C18.948 7.93731 18.3505 7.05825 17.6 6.32005ZM12 18.5301C10.8178 18.5298 9.65739 18.2121 8.64 17.6101L8.4 17.4601L5.91 18.1201L6.57 15.6901L6.41 15.4401C5.55925 14.0667 5.24174 12.429 5.51762 10.8373C5.7935 9.24552 6.64361 7.81021 7.9069 6.80328C9.1702 5.79634 10.7589 5.28771 12.3721 5.37374C13.9853 5.45976 15.511 6.13447 16.66 7.27005C17.916 8.49825 18.635 10.1735 18.66 11.9301C18.6442 13.686 17.9355 15.3646 16.6882 16.6006C15.441 17.8367 13.756 18.5301 12 18.5301ZM15.61 13.5901C15.41 13.4901 14.44 13.0101 14.26 12.9501C14.08 12.8901 13.94 12.8501 13.81 13.0501C13.6144 13.3181 13.404 13.5752 13.18 13.8201C13.07 13.9601 12.95 13.9701 12.75 13.8201C11.6097 13.3694 10.6597 12.5395 10.06 11.4701C9.85 11.1201 10.26 11.1401 10.64 10.3901C10.6681 10.336 10.6827 10.276 10.6827 10.2151C10.6827 10.1541 10.6681 10.0941 10.64 10.0401C10.64 9.94005 10.19 8.96005 10.03 8.57005C9.87 8.18005 9.71 8.24005 9.58 8.23005H9.19C9.08884 8.23095 8.98908 8.25376 8.89758 8.29692C8.80608 8.34008 8.72503 8.40256 8.66 8.48005C8.43615 8.69862 8.26149 8.96242 8.14767 9.25385C8.03386 9.54527 7.98352 9.85762 8 10.1701C8.06153 10.9184 8.34339 11.6318 8.81 12.2201C9.66255 13.4955 10.8303 14.5289 12.2 15.2201C12.9185 15.6395 13.7535 15.8149 14.58 15.7201C14.8552 15.6654 15.1159 15.5535 15.345 15.3916C15.5742 15.2296 15.7667 15.0213 15.91 14.7801C16.044 14.486 16.0858 14.1583 16.03 13.8401C15.94 13.7401 15.81 13.6901 15.61 13.5901Z" fill="white"/>
</svg>
